<svg width="66" height="76" viewBox="0 0 66 76" fill="none" xmlns="http://www.w3.org/2000/svg">
<path d="M34.58 3.22161L62.329 19.2425C63.5213 19.9309 63.6304 20.0324 63.6927 20.1109C63.7535 20.1876 63.8027 20.2729 63.8387 20.3639C63.8756 20.4571 63.909 20.6024 63.909 21.9791V54.0209C63.909 55.3976 63.8756 55.5429 63.8387 55.6361C63.8027 55.7271 63.7535 55.8124 63.6927 55.8891C63.6304 55.9676 63.5213 56.0691 62.329 56.7575L34.58 72.7784C33.3877 73.4668 33.2452 73.5105 33.1461 73.5252C33.0492 73.5395 32.9508 73.5395 32.8539 73.5252C32.7548 73.5105 32.6123 73.4668 31.42 72.7784L3.67103 56.7575C2.47874 56.0691 2.36958 55.9676 2.30734 55.8891C2.24652 55.8124 2.1973 55.7271 2.16126 55.6361C2.12437 55.5429 2.09103 55.3976 2.09103 54.0209V21.9791C2.09103 20.6024 2.12437 20.4571 2.16126 20.3639C2.1973 20.2729 2.24652 20.1876 2.30734 20.1109C2.36958 20.0324 2.47874 19.9309 3.67103 19.2425L31.42 3.22161C32.6123 2.53324 32.7548 2.48947 32.8539 2.47483C32.9508 2.46053 33.0492 2.46053 33.1461 2.47483C33.2452 2.48947 33.3877 2.53324 34.58 3.22161Z" fill="#90CDF4" stroke="white" stroke-width="4"/>
</svg>
