<svg width="20" height="20" viewBox="0 0 16 16" fill="none" xmlns="http://www.w3.org/2000/svg">
<path d="M14.9515 13.2047L14.0062 9.875V2.625C14.0062 2.34844 13.7828 2.125 13.5062 2.125H2.50619C2.22963 2.125 2.00619 2.34844 2.00619 2.625V9.875L1.06088 13.2047C0.943694 13.5312 1.18432 13.875 1.53119 13.875H14.4812C14.8281 13.875 15.0687 13.5312 14.9515 13.2047ZM3.13119 3.25H12.8812V9.42188H3.13119V3.25V3.25ZM6.69838 12.75L6.82494 12.1719H9.17338L9.29994 12.75H6.69838V12.75ZM10.1984 12.75L9.89994 11.3953C9.88744 11.3375 9.83588 11.2969 9.77807 11.2969H6.22182C6.16244 11.2969 6.11244 11.3375 6.09994 11.3953L5.80151 12.75H2.35932L3.02026 10.4219H12.9921L13.6531 12.75H10.1984Z" fill="#2A4365"/>
</svg>
